<?xml version="1.0" ?><svg viewBox="0 0 64 64" xmlns="http://www.w3.org/2000/svg"><g data-name="Layer 81" id="Layer_81"><path d="M60,60.5H4a.5.5,0,0,1-.5-.5V4A.5.5,0,0,1,4,3.5H60a.5.5,0,0,1,.5.5V60A.5.5,0,0,1,60,60.5Zm-55.5-1h55V4.5H4.5Z"/><path d="M56,56.5H8a.5.5,0,0,1-.5-.5V8A.5.5,0,0,1,8,7.5H56a.5.5,0,0,1,.5.5V56A.5.5,0,0,1,56,56.5Zm-47.5-1h47V8.5H8.5Z"/><path d="M34,45.79H30a.5.5,0,0,1-.5-.5V24.74L24.22,30a.48.48,0,0,1-.7,0l-2.83-2.82a.48.48,0,0,1,0-.7l11-11a.48.48,0,0,1,.7,0l11,11a.48.48,0,0,1,0,.7L40.48,30a.48.48,0,0,1-.7,0L34.5,24.74V45.29A.5.5,0,0,1,34,45.79Zm-3.5-1h3V23.53a.5.5,0,0,1,.31-.46.47.47,0,0,1,.54.11L40.13,29l2.12-2.11L32,16.59,21.75,26.84,23.87,29l5.78-5.77a.48.48,0,0,1,.54-.11.5.5,0,0,1,.31.46Z"/></g></svg>